<svg width="32" height="32" viewBox="0 0 32 32" xmlns="http://www.w3.org/2000/svg">
<path d="M22.2768 2.3999H9.72298C7.78142 2.40198 5.91997 3.17418 4.54708 4.54708C3.17418 5.91997 2.40198 7.78142 2.3999 9.72298V22.2768C2.40198 24.2184 3.17418 26.0798 4.54708 27.4527C5.91997 28.8256 7.78142 29.5978 9.72298 29.5999H22.2768C24.2184 29.5978 26.0798 28.8256 27.4527 27.4527C28.8256 26.0798 29.5978 24.2184 29.5999 22.2768V9.72298C29.5978 7.78142 28.8256 5.91997 27.4527 4.54708C26.0798 3.17418 24.2184 2.40198 22.2768 2.3999ZM15.9999 22.2768C14.7584 22.2768 13.5449 21.9087 12.5126 21.219C11.4804 20.5293 10.6759 19.5489 10.2008 18.402C9.7257 17.255 9.60139 15.9929 9.84359 14.7753C10.0858 13.5577 10.6836 12.4393 11.5614 11.5614C12.4393 10.6836 13.5577 10.0858 14.7753 9.84359C15.9929 9.60139 17.255 9.7257 18.402 10.2008C19.5489 10.6759 20.5293 11.4804 21.219 12.5126C21.9087 13.5449 22.2768 14.7584 22.2768 15.9999C22.2751 17.6641 21.6132 19.2597 20.4364 20.4364C19.2597 21.6132 17.6641 22.2751 15.9999 22.2768ZM23.8461 9.72298C23.5357 9.72298 23.2323 9.63095 22.9742 9.45852C22.7162 9.28609 22.515 9.04101 22.3963 8.75427C22.2775 8.46753 22.2464 8.15201 22.307 7.84761C22.3675 7.54321 22.517 7.2636 22.7364 7.04413C22.9559 6.82467 23.2355 6.67522 23.5399 6.61467C23.8443 6.55412 24.1598 6.5852 24.4466 6.70397C24.7333 6.82274 24.9784 7.02387 25.1508 7.28193C25.3233 7.53999 25.4153 7.84338 25.4153 8.15375C25.4153 8.56993 25.25 8.96907 24.9557 9.26336C24.6614 9.55765 24.2622 9.72298 23.8461 9.72298ZM20.1845 15.9999C20.1845 16.8275 19.9391 17.6366 19.4793 18.3248C19.0195 19.0129 18.3659 19.5493 17.6013 19.866C16.8366 20.1827 15.9953 20.2656 15.1835 20.1041C14.3718 19.9426 13.6262 19.5441 13.0409 18.9589C12.4557 18.3736 12.0572 17.628 11.8957 16.8163C11.7342 16.0045 11.8171 15.1632 12.1338 14.3985C12.4505 13.6339 12.9869 12.9803 13.6751 12.5205C14.3632 12.0607 15.1723 11.8153 15.9999 11.8153C17.1097 11.8153 18.1741 12.2562 18.9589 13.0409C19.7436 13.8257 20.1845 14.8901 20.1845 15.9999Z" fill="currentColor"/>
</svg>
