<svg width="16" height="16" viewBox="0 0 16 16" xmlns="http://www.w3.org/2000/svg">
<path fill-rule="evenodd" clip-rule="evenodd" d="M7.70246 14.5697L7.74772 14.5961L7.76582 14.6066C7.8376 14.6461 7.91791 14.6668 7.99951 14.6668C8.08112 14.6668 8.16143 14.6461 8.23321 14.6066L8.25131 14.5967L8.29721 14.5697C8.55005 14.417 8.79677 14.254 9.03677 14.0811C9.65807 13.6343 10.2386 13.1314 10.7712 12.5785C12.028 11.2681 13.3332 9.2992 13.3332 6.766C13.3332 5.32521 12.7713 3.94343 11.7711 2.92464C10.7709 1.90585 9.41433 1.3335 7.99984 1.3335C6.58535 1.3335 5.2288 1.90585 4.2286 2.92464C3.22841 3.94343 2.6665 5.32521 2.6665 6.766C2.6665 9.29854 3.97236 11.2681 5.22844 12.5785C5.7609 13.1314 6.34119 13.6343 6.96226 14.0811C7.20247 14.254 7.4494 14.417 7.70246 14.5697V14.5697ZM7.99984 8.74146C8.5142 8.74146 9.00749 8.53333 9.3712 8.16286C9.7349 7.79239 9.93923 7.28993 9.93923 6.766C9.93923 6.24208 9.7349 5.73961 9.3712 5.36914C9.00749 4.99867 8.5142 4.79055 7.99984 4.79055C7.48548 4.79055 6.99219 4.99867 6.62848 5.36914C6.26477 5.73961 6.06044 6.24208 6.06044 6.766C6.06044 7.28993 6.26477 7.79239 6.62848 8.16286C6.99219 8.53333 7.48548 8.74146 7.99984 8.74146V8.74146Z" fill="currentColor"/>
</svg>
