<svg width="32" height="32" viewBox="0 0 32 32" xmlns="http://www.w3.org/2000/svg">
<g clip-path="url(#clip0_603_995)">
<path d="M29.3327 10.0464V22.6664C29.3327 23.6867 28.9429 24.6684 28.243 25.4107C27.543 26.1531 26.5859 26.5999 25.5673 26.6597L25.3327 26.6664H6.66602C5.64573 26.6664 4.664 26.2766 3.92167 25.5767C3.17934 24.8767 2.73254 23.9196 2.67268 22.9011L2.66602 22.6664V10.0464L15.2593 18.4424L15.414 18.5304C15.5963 18.6194 15.7965 18.6657 15.9993 18.6657C16.2022 18.6657 16.4024 18.6194 16.5847 18.5304L16.7393 18.4424L29.3327 10.0464Z" fill="currentColor"/>
<path d="M25.3331 5.3335C26.7731 5.3335 28.0358 6.0935 28.7398 7.23616L15.9998 15.7295L3.25977 7.23616C3.59407 6.69319 4.05338 6.23803 4.59938 5.90867C5.14537 5.57931 5.76221 5.3853 6.39843 5.34283L6.66643 5.3335H25.3331Z" fill="currentColor"/>
</g>
<defs>
<clipPath id="clip0_603_995">
<rect width="32" height="32" fill="white"/>
</clipPath>
</defs>
</svg>
