<svg width="16" height="16" viewBox="0 0 16 16" xmlns="http://www.w3.org/2000/svg">
<g clip-path="url(#clip0_603_989)">
<path fill-rule="evenodd" clip-rule="evenodd" d="M11.0345 14.7555C10.0745 14.7201 7.35384 14.3441 4.5045 11.4955C1.65584 8.64614 1.2805 5.92614 1.2445 4.96548C1.19117 3.50148 2.3125 2.07948 3.60784 1.52414C3.76382 1.45679 3.93464 1.43114 4.10352 1.44973C4.27241 1.46831 4.43356 1.53048 4.57117 1.63014C5.63784 2.40748 6.37384 3.58348 7.00584 4.50814C7.14489 4.7113 7.20435 4.95851 7.17288 5.20267C7.1414 5.44684 7.0212 5.67089 6.83517 5.83214L5.5345 6.79814C5.47167 6.84352 5.42743 6.91016 5.41002 6.98569C5.39261 7.06122 5.4032 7.1405 5.43984 7.20881C5.7345 7.74414 6.2585 8.54148 6.8585 9.14148C7.45917 9.74148 8.29384 10.3001 8.8665 10.6281C8.93831 10.6685 9.02282 10.6797 9.10267 10.6596C9.18253 10.6395 9.25165 10.5896 9.29584 10.5201L10.1425 9.23148C10.2982 9.02471 10.5278 8.88619 10.7833 8.84493C11.0388 8.80367 11.3003 8.86288 11.5132 9.01014C12.4512 9.65948 13.5458 10.3828 14.3472 11.4088C14.4549 11.5474 14.5235 11.7124 14.5456 11.8866C14.5678 12.0607 14.5428 12.2376 14.4732 12.3988C13.9152 13.7008 12.5032 14.8095 11.0345 14.7555Z" fill="currentColor"/>
</g>
<defs>
<clipPath id="clip0_603_989">
<rect width="16" height="16" fill="white"/>
</clipPath>
</defs>
</svg>
