<svg width="35" height="32" viewBox="0 0 35 32" xmlns="http://www.w3.org/2000/svg">
<path d="M13.1091 0L7.50909 23.7751L6.49091 18.249C8.52727 18.249 10.1818 18.8916 11.4545 20.1767C12.7273 21.3762 13.3636 23.004 13.3636 25.0602C13.3636 27.1165 12.7273 28.7872 11.4545 30.0723C10.1818 31.3574 8.61212 32 6.74545 32C4.70909 32 3.05455 31.3574 1.78182 30.0723C0.593939 28.7015 0 27.0308 0 25.0602C0 24.2892 0.042424 23.6037 0.127272 23.004C0.212121 22.4043 0.381818 21.676 0.636364 20.8193C0.890909 19.9625 1.2303 18.9344 1.65454 17.7349L7 0H13.1091ZM34.7455 0L29.1455 23.7751L28.1273 18.249C30.1636 18.249 31.8182 18.8916 33.0909 20.1767C34.3636 21.3762 35 23.004 35 25.0602C35 27.1165 34.3636 28.7872 33.0909 30.0723C31.8182 31.3574 30.2485 32 28.3818 32C26.3455 32 24.6909 31.3574 23.4182 30.0723C22.2303 28.7015 21.6364 27.0308 21.6364 25.0602C21.6364 24.2892 21.6788 23.6037 21.7636 23.004C21.8485 22.4043 22.0182 21.676 22.2727 20.8193C22.5273 19.9625 22.8667 18.9344 23.2909 17.7349L28.6364 0H34.7455Z" fill="currentColor"/>
</svg>
