<svg width="32" height="32" viewBox="0 0 32 32" xmlns="http://www.w3.org/2000/svg">
<path d="M13.1541 2.4033L13.9803 2.3999H18.0195L18.8468 2.4033L19.8827 2.41464L20.3734 2.42257L20.8472 2.43504L21.3039 2.4509L21.7436 2.46904L22.1675 2.49284L22.5755 2.52117L22.9665 2.55518L23.3439 2.59258C25.3159 2.81472 26.668 3.29074 27.688 4.31078C28.708 5.33082 29.184 6.68181 29.4061 8.65503L29.4446 9.03245L29.4775 9.4246L29.5058 9.83261L29.5285 10.2554L29.5568 10.9218L29.5704 11.3865L29.5852 12.1164L29.5954 13.1534L29.5999 14.2641L29.5988 18.019L29.5954 18.8464L29.584 19.8823L29.5761 20.3731L29.5636 20.8468L29.5478 21.3036L29.5296 21.7433L29.5058 22.1672L29.4775 22.5752L29.4435 22.9662L29.4061 23.3436C29.184 25.3157 28.708 26.6678 27.688 27.6879C26.668 28.7079 25.317 29.184 23.3439 29.4061L22.9665 29.4446L22.5744 29.4775L22.1664 29.5058L21.7436 29.5285L21.0772 29.5568L20.6126 29.5704L19.8827 29.5852L18.8457 29.5954L17.735 29.5999L13.9803 29.5988L13.153 29.5954L12.1171 29.584L11.6264 29.5761L11.1526 29.5636L10.6959 29.5478L10.2562 29.5296L9.8323 29.5058L9.4243 29.4775L9.0333 29.4435L8.6559 29.4061C6.6839 29.184 5.33184 28.7079 4.31184 27.6879C3.29184 26.6678 2.81584 25.3169 2.5937 23.3436L2.55517 22.9662L2.5223 22.5741L2.49397 22.1661L2.4713 21.7433L2.44297 21.0769L2.42937 20.6122L2.41464 19.8823L2.40444 18.8453L2.3999 17.7345L2.40104 13.9797L2.40444 13.1523L2.41577 12.1164L2.4237 11.6256L2.43617 11.1519L2.45204 10.6951L2.47017 10.2554L2.49397 9.83148L2.5223 9.42346L2.5563 9.03245L2.5937 8.65503C2.81584 6.68295 3.29184 5.33082 4.31184 4.31078C5.33184 3.29074 6.68277 2.81472 8.6559 2.59258L9.0333 2.55404L9.42544 2.52117L9.83344 2.49284L10.2562 2.47017L10.9226 2.44184L11.3872 2.42824L12.1171 2.4135L13.1541 2.4033ZM10.0952 10.6724H6.9899C7.13724 17.7447 10.6732 21.9949 16.8726 21.9949H17.2239V17.9488C19.5019 18.1754 21.2246 19.8415 21.9159 21.9949H25.1346C24.2506 18.7761 21.9272 16.9967 20.4766 16.3167C21.9272 15.478 23.9672 13.4379 24.4546 10.6724H21.5306C20.8959 12.9165 19.0146 14.9566 17.2239 15.1493V10.6724H14.2999V18.5154C12.4866 18.0621 10.1972 15.8633 10.0952 10.6724Z" fill="currentColor"/>
</svg>
