<svg width="105" height="64" viewBox="0 0 105 64" fill="none" xmlns="http://www.w3.org/2000/svg">
<g clip-path="url(#clip0_602_967)">
<path d="M54.3168 22.4901C53.6886 22.491 53.0743 22.3071 52.5516 21.9617C52.0289 21.6162 51.6212 21.1248 51.3802 20.5496C51.1392 19.9743 51.0757 19.3411 51.1977 18.73C51.3196 18.119 51.6216 17.5575 52.0655 17.1167C52.5093 16.6759 53.075 16.3756 53.691 16.2537C54.307 16.1318 54.9457 16.1939 55.5261 16.4321C56.1065 16.6703 56.6026 17.0738 56.9517 17.5917C57.3008 18.1096 57.4871 18.7185 57.4871 19.3415C57.4859 20.1754 57.1516 20.9748 56.5575 21.5649C55.9633 22.155 55.1576 22.4876 54.3168 22.4901ZM54.3168 16.941C53.838 16.941 53.3701 17.0818 52.972 17.3455C52.5739 17.6093 52.2637 17.9842 52.0805 18.4228C51.8973 18.8615 51.8493 19.3441 51.9427 19.8098C52.0361 20.2754 52.2667 20.7031 52.6052 21.0388C52.9437 21.3745 53.375 21.6032 53.8446 21.6958C54.3141 21.7884 54.8008 21.7409 55.2431 21.5592C55.6854 21.3775 56.0634 21.0698 56.3294 20.6751C56.5954 20.2803 56.7373 19.8162 56.7373 19.3415C56.7361 18.7052 56.4807 18.0953 56.027 17.6454C55.5733 17.1955 54.9584 16.9422 54.3168 16.941Z" fill="#161515"/>
<path d="M44.3105 18.3222L43.644 17.978L43.8199 17.6475C43.9171 17.4501 46.4071 12.8833 54.3167 12.8833C62.3744 12.8833 64.7209 17.4731 64.8181 17.6567L64.9847 17.9917L64.3043 18.3176L64.1377 17.9825C64.1377 17.9412 61.8745 13.6314 54.3167 13.6314C46.8884 13.6314 44.5095 17.9504 44.4864 17.9917L44.3105 18.3222Z" fill="#161515"/>
<path d="M43.9774 22.4718H33.4297V21.7236H43.9774V22.4718Z" fill="#161515"/>
<path d="M73.51 15.2887H61.5044V14.5405H73.51V15.2887Z" fill="#161515"/>
<path d="M47.2816 15.2887H35.1187V14.5405H47.2816V15.2887Z" fill="#161515"/>
<path d="M60.5047 0.748135H48.1289V0H60.5047V0.748135Z" fill="#161515"/>
<path d="M33.3552 17.5787H23.5435V16.8306H33.3552V17.5787Z" fill="#161515"/>
<path d="M33.3552 23.2149H23.5435V22.4668H33.3552V23.2149Z" fill="#161515"/>
<path d="M85.0615 23.2149H75.2544V22.4668H85.0615V23.2149Z" fill="#161515"/>
<path d="M85.0615 17.5787H75.2544V16.8306H85.0615V17.5787Z" fill="#161515"/>
<path d="M75.1573 22.4718H64.605V21.7236H75.1573V22.4718Z" fill="#161515"/>
<path d="M54.613 2.53818H54.2335C46.7404 2.73554 42.7926 4.76881 39.6685 10.0379C37.9422 12.9524 36.8916 14.0402 35.7531 14.0402C35.646 14.0397 35.5392 14.0305 35.4337 14.0126L35.0635 13.9484L35.1884 13.214L35.5587 13.2737C36.2992 13.3976 37.1369 12.8147 39.0206 9.65694C42.2973 4.12625 46.4257 1.99658 54.215 1.79004H54.326" fill="#161515"/>
<path d="M54.326 1.79932C62.1939 1.9875 66.3269 4.12174 69.599 9.6662C71.4781 12.8423 72.3158 13.4069 73.0563 13.283L73.4266 13.2233L73.5515 13.9577L73.1813 14.0219C73.0758 14.0402 72.969 14.0494 72.8619 14.0494C71.7141 14.0494 70.6774 12.9617 68.9465 10.0472C65.7761 4.69547 61.9394 2.73103 54.2936 2.54744H53.9141" fill="#161515"/>
<path d="M45.3101 23.431H44.5557V17.7305H45.3101V23.431Z" fill="#161515"/>
<path d="M64.0545 23.431H63.3047V17.7305H64.0545V23.431Z" fill="#161515"/>
<path d="M105 52.7276H0V51.9795H105V52.7276Z" fill="#161515"/>
<path d="M7.3077 23.6649C7.3077 22.2191 7.47894 22.1365 8.85351 22.1365H11.9775C14.2917 22.1365 15.495 22.3476 16.2216 23.1967C16.8233 23.9632 17.2074 25.0694 17.6378 26.9374L18.9199 26.685C18.707 24.6425 18.4941 21.4572 18.457 20.6907H0.282075V21.8382C3.36446 22.0952 3.70696 22.265 3.70696 25.6615V43.0017C3.70696 46.701 3.36447 46.9122 0.00439453 47.1692V48.3166H9.04789C12.3895 48.3166 15.4302 47.8072 17.573 46.5725C19.9751 45.1726 21.4746 43.0843 21.4746 39.6878C21.4746 35.1394 18.346 32.1652 11.4453 32.1652C10.0568 32.1652 8.70541 32.2065 7.33083 32.2937L7.28918 23.6649H7.3077ZM10.9084 46.7837C7.86308 46.7837 7.3077 46.0631 7.3077 42.5748V33.7808C8.12226 33.7349 8.97847 33.6936 9.96428 33.6936C14.5508 33.6936 17.337 35.5295 17.337 40.1193C17.337 45.1359 14.1204 46.7928 10.9084 46.7928V46.7837ZM38.076 43.7269C37.7435 44.6833 37.2609 45.5818 36.6459 46.3889C36.0211 47.1279 35.2204 47.3528 33.0497 47.3528C31.6196 47.3528 30.6199 47.3252 30.0784 46.981C29.5369 46.6368 29.3888 45.9896 29.3888 44.6632V39.3344H32.1056C34.5909 39.3344 34.79 39.5043 35.1602 41.5146H35.9887V36.1032H35.1741C34.8362 38.0034 34.6881 38.2283 32.0917 38.2283H29.3888V31.7705C29.3888 30.9489 29.449 30.8525 30.3145 30.8525H32.4851C34.5447 30.8525 35.3129 31.0499 35.7248 31.6741C36.1837 32.4123 36.4977 33.2299 36.6505 34.0837L37.4882 33.9644C37.4049 32.5186 37.2614 30.5955 37.2614 29.8841H24.5292V30.6781C26.76 30.8479 26.9868 30.9627 26.9868 33.4825V44.7596C26.9868 47.1141 26.76 47.339 24.159 47.5134V48.3075H37.9047C38.1639 47.4262 38.7332 44.7641 38.9044 43.8278L38.076 43.7177V43.7269ZM60.6292 29.8978H53.1917V30.6919C55.4178 30.8892 55.6446 31.0315 55.6446 33.3861V37.9759H45.9023V33.3861C45.9023 31.0315 46.1337 30.8617 48.3043 30.6919V29.8978H40.8992V30.6919C43.241 30.8617 43.4725 31.004 43.4725 33.3861V44.8284C43.4725 47.2105 43.241 47.3528 40.9547 47.5226V48.3166H48.4709V47.5226C46.1291 47.3528 45.8976 47.183 45.8976 44.8284V39.1922H55.64V44.8284C55.64 47.2105 55.4132 47.3528 52.9556 47.5226V48.3166H60.6292V47.5226C58.3151 47.3528 58.0837 47.2105 58.0837 44.8284V33.3861C58.0837 31.0315 58.3105 30.8892 60.657 30.6919V29.8978H60.6292ZM80.225 29.8978H74.051V30.7194L75.0507 30.8341C76.1337 31.004 76.3929 31.3987 75.8467 33.0143C74.847 35.9885 73.764 38.343 72.4496 41.3723L68.0343 32.4222C67.4928 31.3161 67.5715 31.004 68.4046 30.8617L69.2377 30.7194V29.8978H62.5036V30.7194C64.3318 30.9764 64.7298 31.2013 65.4194 32.6196C66.109 34.0378 69.8162 41.3998 70.4132 42.7171C70.7011 43.1885 70.868 43.7228 70.8992 44.273C70.8992 44.81 69.9041 47.2748 68.4462 47.2748C67.8288 47.2904 67.2273 47.0795 66.7569 46.6827C66.6736 46.6128 66.577 46.5602 66.4728 46.5278C66.3687 46.4955 66.2591 46.4841 66.1504 46.4944C66.0418 46.5046 65.9363 46.5363 65.8402 46.5876C65.744 46.6388 65.6592 46.7086 65.5906 46.7928C65.386 46.9519 65.2468 47.1794 65.1991 47.4328C65.1514 47.6863 65.1985 47.9483 65.3315 48.1698C65.5432 48.4923 65.837 48.7538 66.1831 48.9278C66.5293 49.1019 66.9156 49.1824 67.3031 49.1612C68.6915 49.1612 70.2466 48.537 71.9035 45.1635C73.0744 42.6712 75.93 36.0114 76.9945 33.7165C78.1377 31.2794 78.3367 30.9397 80.2343 30.7424V29.9208L80.225 29.8978ZM104.967 48.3166V47.1279C102.19 46.8709 101.58 46.4853 100.251 42.8319C97.5113 35.4377 94.6372 27.3184 91.9806 20.0527L90.6523 20.4337L81.7801 42.7079C80.3268 46.4853 79.7252 46.7423 76.9806 47.1279V48.3166H86.325V47.1279C83.0852 46.8296 82.7242 46.4027 83.6267 43.7269C84.1821 41.9414 84.8254 40.1514 85.5104 38.2421H94.6372C95.5629 40.8353 96.4376 43.1302 96.9976 44.7871C97.5576 46.444 97.1688 46.7837 94.466 47.1279V48.3166H104.967ZM94.0402 36.4153H86.1722C87.5005 32.9317 88.8288 29.191 90.1988 25.5788H90.2867L94.0587 36.4153H94.0402Z" fill="#161515"/>
<path d="M6.47954 62.481H7.29411L6.89608 56.1609H5.84548L4.70231 59.2085C4.41999 60.0071 4.19321 60.7048 4.02197 61.3473C3.85072 60.691 3.64245 59.9704 3.37864 59.2085L2.29102 56.1517H1.24505L0.782227 62.4718H1.56903L1.74027 59.7593C1.79581 58.8138 1.84208 57.7535 1.86059 56.9641C2.04109 57.7168 2.28639 58.5338 2.59185 59.4242L3.62857 62.4351H4.25338L5.38266 59.3645C5.70201 58.5017 5.95655 57.6985 6.18333 56.9641C6.18333 57.7443 6.23887 58.823 6.28978 59.695L6.43789 62.4718L6.47954 62.481ZM16.1988 58.8413H13.7319V56.8448H16.3469V56.1609H12.8989V62.481H16.4903V61.7971H13.7134V59.5023H16.1988V58.8413ZM22.8958 56.1609V57.7719C22.9247 58.6677 22.8218 59.563 22.5903 60.4294C22.4303 60.9077 22.2226 61.369 21.9701 61.8063H21.5073L21.5628 63.9727H22.2015L22.2617 62.4535H26.279L26.3345 63.9727H26.9778L27.038 61.8063H26.478V56.1609H22.8958ZM23.6594 56.8448H25.6264V61.8063H22.8171C23.0283 61.4239 23.2034 61.0228 23.3401 60.6084C23.5749 59.7675 23.6826 58.8966 23.6594 58.0243V56.8448ZM32.4067 56.1609V62.481H33.2861L35.2855 59.337C35.7218 58.6514 36.1159 57.9402 36.4657 57.2074H36.4934C36.4286 58.0014 36.4194 58.7541 36.4194 59.7776V62.4673H37.1923V56.1609H36.3731L34.3089 59.415C33.8772 60.0891 33.4862 60.788 33.138 61.508H33.1056C33.1657 60.6681 33.1843 59.8327 33.1843 58.8367V56.1747L32.4067 56.1609ZM42.9822 56.1609V62.481H43.8014V59.5849H44.0652C45.1435 59.5849 45.5416 60.154 45.8378 60.9893C45.9948 61.5001 46.1897 61.9987 46.4209 62.481H47.3049C47.0272 61.9211 46.8421 61.3336 46.6014 60.6864C46.2821 59.8373 45.8748 59.1993 44.8149 59.0616L47.2262 56.1609H46.2451L44.0605 58.9652H43.8014V56.1609H42.9822ZM55.793 60.4936L56.4734 62.481H57.3574L55.1821 56.1609H54.187L52.021 62.481H52.8726L53.5345 60.4936H55.793ZM53.6872 59.8557L54.312 58.0197C54.4323 57.6388 54.5388 57.2441 54.6221 56.8769H54.6499C54.747 57.2441 54.8396 57.6204 54.9738 58.0289L55.6079 59.8648L53.6872 59.8557ZM63.4064 56.1609V58.823C63.4064 59.8373 63.3555 61.072 62.8464 61.5768C62.66 61.7505 62.4269 61.8668 62.1753 61.9119L62.2771 62.5682C62.6269 62.5588 62.9675 62.4557 63.2629 62.2699C64.1516 61.6686 64.2164 60.1494 64.2164 58.7725V56.8585H66.3176V62.4948H67.146V56.1609H63.4064ZM83.5669 61.6181C83.1389 61.8008 82.6767 61.8915 82.2108 61.8843C80.6696 61.8843 79.7717 60.8975 79.7717 59.3508C79.7717 57.6985 80.7668 56.7484 82.2617 56.7484C82.7003 56.7406 83.1351 56.83 83.5345 57.01L83.7427 56.3399C83.2639 56.1422 82.7476 56.0498 82.2293 56.0691C81.7852 56.0451 81.3409 56.1144 80.9256 56.2723C80.5103 56.4303 80.1333 56.6734 79.8192 56.9857C79.5051 57.298 79.2611 57.6726 79.1029 58.0849C78.9448 58.4972 78.8762 58.9379 78.9016 59.3783C78.9016 61.4529 80.2438 62.5912 82.0442 62.5912C82.6195 62.6089 83.192 62.5057 83.7242 62.2882L83.5669 61.6319V61.6181ZM89.1207 56.1609V62.481H89.9538V56.8448H92.9112V62.481H93.7443V56.1609H89.1207ZM102.816 60.4936L103.496 62.481H104.375L102.2 56.1609H101.205L99.0436 62.481H99.8952L100.557 60.4936H102.816ZM100.724 59.8557L101.348 58.0197C101.473 57.6388 101.575 57.2441 101.663 56.8769H101.691C101.783 57.2441 101.881 57.6204 102.01 58.0289L102.644 59.8648L100.724 59.8557Z" fill="#161515"/>
</g>
<defs>
<clipPath id="clip0_602_967">
<rect width="105" height="64" fill="white"/>
</clipPath>
</defs>
</svg>
