<svg style="display: none;" aria-hidden="true" xmlns="http://www.w3.org/2000/svg" xmlns:xlink="http://www.w3.org/1999/xlink"><symbol viewBox="0 0 12 12" id="svg-arrow"><path fill-rule="evenodd" clip-rule="evenodd" d="m1 4.338.812-.838L6 7.823 10.188 3.5l.812.838L6 9.5 1 4.338Z" fill="currentColor"/></symbol><symbol viewBox="0 0 20 20" id="svg-arrow-line"><path d="M4.167 2H18m0 0v13.833M18 2 2 18" stroke="currentColor" stroke-width="1.3"/></symbol><symbol viewBox="0 0 24 24" id="svg-burger"><path fill-rule="evenodd" clip-rule="evenodd" d="M0 4h24v1.882H0V4Zm0 7.059h24v1.882H0V11.06Zm24 7.059H0V20h24v-1.882Z" fill="currentColor"/></symbol><symbol viewBox="0 0 24 24" id="svg-close"><path d="m2 2 10 10m10 10L12 12m0 0L22 2 2 22" stroke="currentColor" stroke-width="2"/></symbol><symbol viewBox="0 0 32 32" id="svg-inst"><path d="M22.277 2.4H9.723A7.33 7.33 0 0 0 2.4 9.723v12.554A7.33 7.33 0 0 0 9.723 29.6h12.554a7.331 7.331 0 0 0 7.323-7.323V9.723A7.331 7.331 0 0 0 22.277 2.4ZM16 22.277A6.277 6.277 0 1 1 22.277 16 6.283 6.283 0 0 1 16 22.277Zm7.846-12.554a1.57 1.57 0 1 1 0-3.139 1.57 1.57 0 0 1 0 3.139ZM20.184 16a4.185 4.185 0 1 1-8.37 0 4.185 4.185 0 0 1 8.37 0Z" fill="currentColor"/></symbol><symbol viewBox="0 0 16 16" id="svg-location"><path fill-rule="evenodd" clip-rule="evenodd" d="m7.702 14.57.046.026.018.01a.485.485 0 0 0 .467 0l.018-.01.046-.026c.253-.153.5-.316.74-.489a12.72 12.72 0 0 0 1.734-1.502c1.257-1.31 2.562-3.28 2.562-5.813 0-1.44-.562-2.823-1.562-3.841A5.285 5.285 0 0 0 8 1.334a5.284 5.284 0 0 0-3.771 1.59 5.484 5.484 0 0 0-1.563 3.842c0 2.533 1.306 4.502 2.562 5.813a12.721 12.721 0 0 0 1.734 1.502c.24.173.487.336.74.489ZM8 8.74c.514 0 1.007-.208 1.371-.578.364-.37.568-.873.568-1.397s-.204-1.026-.568-1.397A1.922 1.922 0 0 0 8 4.791c-.515 0-1.008.208-1.372.578-.363.37-.568.873-.568 1.397s.205 1.026.568 1.397c.364.37.857.578 1.372.578Z" fill="currentColor"/></symbol><symbol viewBox="0 0 32 32" id="svg-mail"><g clip-path="url(#gclip0_603_995)"><path d="M29.333 10.046v12.62a4 4 0 0 1-3.766 3.994l-.234.006H6.666a4 4 0 0 1-3.993-3.765l-.007-.235v-12.62l12.593 8.396.155.088a1.334 1.334 0 0 0 1.17 0l.155-.088 12.594-8.396Z" fill="currentColor"/><path d="M25.333 5.333c1.44 0 2.703.76 3.407 1.903L16 15.73 3.26 7.236a3.999 3.999 0 0 1 3.138-1.893l.268-.01h18.667Z" fill="currentColor"/></g><defs><clipPath id="gclip0_603_995"><rect width="32" height="32" fill="white"/></clipPath></defs></symbol><symbol viewBox="0 0 16 16" id="svg-phone"><g clip-path="url(#hclip0_603_989)"><path fill-rule="evenodd" clip-rule="evenodd" d="M11.034 14.755c-.96-.035-3.68-.41-6.53-3.26-2.848-2.849-3.223-5.569-3.26-6.53-.053-1.464 1.069-2.886 2.364-3.44a.98.98 0 0 1 .963.105c1.067.777 1.803 1.953 2.435 2.878a1.003 1.003 0 0 1-.17 1.324l-1.301.966a.32.32 0 0 0-.095.41c.294.536.818 1.333 1.418 1.933.601.6 1.436 1.16 2.009 1.487a.321.321 0 0 0 .429-.108l.847-1.289a1.002 1.002 0 0 1 1.37-.22c.938.648 2.033 1.372 2.834 2.398a.98.98 0 0 1 .126.99c-.558 1.302-1.97 2.41-3.439 2.357Z" fill="currentColor"/></g><defs><clipPath id="hclip0_603_989"><rect width="16" height="16" fill="white"/></clipPath></defs></symbol><symbol viewBox="0 0 35 32" id="svg-quote"><path d="m13.11 0-5.6 23.775-1.02-5.526c2.037 0 3.692.643 4.964 1.928 1.273 1.2 1.91 2.827 1.91 4.883s-.637 3.727-1.91 5.012C10.182 31.357 8.612 32 6.745 32c-2.036 0-3.69-.643-4.963-1.928C.594 28.702 0 27.031 0 25.06c0-.77.042-1.456.127-2.056.085-.6.255-1.328.51-2.185.254-.857.593-1.885 1.018-3.084L7 0h6.11Zm21.636 0-5.6 23.775-1.019-5.526c2.037 0 3.691.643 4.964 1.928C34.364 21.377 35 23.004 35 25.06s-.636 3.727-1.91 5.012C31.819 31.357 30.249 32 28.383 32c-2.037 0-3.691-.643-4.964-1.928-1.188-1.37-1.782-3.041-1.782-5.012 0-.77.043-1.456.128-2.056.085-.6.254-1.328.509-2.185a65.09 65.09 0 0 1 1.018-3.084L28.636 0h6.11Z" fill="currentColor"/></symbol><symbol viewBox="0 0 32 32" id="svg-tg"><path d="M16 2.667C8.64 2.667 2.666 8.64 2.666 16S8.64 29.333 16 29.333c7.36 0 13.333-5.973 13.333-13.333S23.36 2.667 16 2.667Zm6.186 9.066c-.2 2.107-1.066 7.227-1.506 9.587-.187 1-.56 1.333-.907 1.373-.773.067-1.36-.506-2.107-1-1.173-.773-1.84-1.253-2.973-2-1.32-.866-.466-1.346.293-2.12.2-.2 3.614-3.306 3.68-3.586a.266.266 0 0 0-.066-.24c-.08-.067-.187-.04-.28-.027-.12.027-1.987 1.267-5.627 3.72-.533.36-1.013.547-1.44.533-.48-.013-1.386-.266-2.066-.493-.84-.267-1.494-.413-1.44-.88.026-.24.36-.48.986-.733 3.893-1.694 6.48-2.814 7.773-3.347 3.707-1.547 4.467-1.813 4.974-1.813.107 0 .36.026.52.16a.53.53 0 0 1 .186.36c-.013.08.014.32 0 .506Z" fill="currentColor"/></symbol><symbol viewBox="0 0 32 32" id="svg-vk"><path d="m13.154 2.403.826-.003h4.04l.827.003 1.036.012.49.008.474.012.457.016.44.018.424.024.408.028.39.034.378.038c1.972.222 3.324.698 4.344 1.718 1.02 1.02 1.496 2.37 1.718 4.344l.039.377.032.393.029.408.023.422.028.667.013.464.015.73.01 1.037.005 1.111-.001 3.755-.004.827-.011 1.036-.008.491-.012.474-.016.457-.018.44-.024.423-.029.408-.034.391-.037.378c-.222 1.972-.698 3.324-1.718 4.344-1.02 1.02-2.371 1.496-4.344 1.718l-.378.039-.392.032-.408.029-.422.023-.667.028-.464.013-.73.015-1.037.01-1.111.005-3.755-.001-.827-.004-1.036-.011-.49-.008-.474-.012-.457-.016-.44-.018-.424-.024-.408-.029-.39-.034-.378-.037c-1.972-.222-3.324-.698-4.344-1.718-1.02-1.02-1.496-2.371-1.718-4.344l-.039-.378-.033-.392-.028-.408-.023-.423-.028-.666-.014-.465-.014-.73-.01-1.037-.005-1.11.001-3.755.003-.828.012-1.036.008-.49.012-.474.016-.457.018-.44.024-.424.028-.408.034-.39.038-.378c.222-1.972.698-3.324 1.718-4.344 1.02-1.02 2.37-1.496 4.344-1.718l.377-.039.392-.033.408-.028.423-.023.667-.028.464-.014.73-.014 1.037-.01Zm-3.059 8.27H6.99c.147 7.072 3.683 11.322 9.883 11.322h.35v-4.046c2.279.226 4.002 1.892 4.693 4.046h3.219c-.884-3.219-3.208-4.998-4.658-5.678 1.45-.839 3.49-2.88 3.978-5.645H21.53c-.635 2.244-2.516 4.285-4.307 4.477v-4.477H14.3v7.843c-1.813-.453-4.103-2.652-4.205-7.843Z" fill="currentColor"/></symbol><symbol viewBox="0 0 16 16" id="svg-whats"><path d="m1.336 14.667.902-3.312a6.667 6.667 0 1 1 2.41 2.409l-3.312.903Zm4.258-9.795a.64.64 0 0 0-.247.067.862.862 0 0 0-.196.152c-.08.075-.125.14-.174.204A1.82 1.82 0 0 0 4.6 6.414c.002.326.087.644.22.942.273.6.722 1.238 1.314 1.828.143.142.282.284.432.417a6.298 6.298 0 0 0 2.56 1.364l.38.058c.123.007.246-.003.37-.009.194-.01.384-.062.556-.154.087-.045.172-.094.255-.146l.083-.06c.09-.067.146-.114.22-.193a.767.767 0 0 0 .14-.2c.052-.11.104-.317.125-.49.016-.132.012-.204.01-.248-.003-.072-.062-.146-.127-.177l-.388-.174s-.58-.253-.934-.414a.332.332 0 0 0-.118-.027.321.321 0 0 0-.252.085v-.002c-.003 0-.048.038-.53.622a.233.233 0 0 1-.245.087.945.945 0 0 1-.127-.044l-.168-.073-.004-.001a4.007 4.007 0 0 1-1.046-.667c-.084-.073-.162-.153-.242-.23a4.197 4.197 0 0 1-.68-.846l-.04-.063a.616.616 0 0 1-.068-.137.214.214 0 0 1 .04-.176s.163-.178.238-.274c.063-.08.121-.163.176-.248.078-.127.103-.257.062-.358-.187-.456-.38-.91-.58-1.36-.038-.09-.155-.154-.261-.167a2.966 2.966 0 0 0-.108-.01 2.255 2.255 0 0 0-.269.003Z" fill="currentColor"/></symbol></svg>